<?xml version="1.0" ?><svg data-name="Слой 1" id="Слой_1" viewBox="0 0 96 96" xmlns="http://www.w3.org/2000/svg"><defs><style>
      .cls-1 {
        fill: #2370b8;
      }

      .cls-2 {
        fill: #359bed;
      }

      .cls-3 {
        fill: none;
        stroke: #fff;
        stroke-linecap: round;
        stroke-linejoin: round;
        stroke-width: 3px;
      }

      .cls-4 {
        fill: #fff;
      }
    </style></defs><title/><path class="cls-1" d="M92,48v.13A44,44,0,1,1,47.87,4H48c1.06,0,2.11,0,3.16.12a42.89,42.89,0,0,1,5.12.67,43.39,43.39,0,0,1,8.1,2.37A44.13,44.13,0,0,1,88.79,31.47a43.22,43.22,0,0,1,2.43,8.24h0a44,44,0,0,1,.67,5.17C92,45.92,92,47,92,48Z"/><path class="cls-2" d="M91,44.5v.12A39.53,39.53,0,1,1,51.38,5h.12c1,0,1.89,0,2.84.11a38.38,38.38,0,0,1,4.59.6,39.33,39.33,0,0,1,5.45,1.45A44.13,44.13,0,0,1,88.79,31.47a38.33,38.33,0,0,1,1.51,5.59h0a39.22,39.22,0,0,1,.6,4.64C91,42.63,91,43.57,91,44.5Z"/><path class="cls-3" d="M74.66,21.93a36.47,36.47,0,0,1,3,3.52"/><path class="cls-3" d="M58,12a38.11,38.11,0,0,1,11.78,5.76"/><path class="cls-4" d="M69,34.9a48.22,48.22,0,0,1-5,1.54l0-.08c3.43-2.23,3.84-4.94,3.84-4.94a15.88,15.88,0,0,1-5.53,2.21A8.53,8.53,0,0,0,47.47,39.4a8.67,8.67,0,0,0,.28,2.12,25.36,25.36,0,0,1-18-9.09s-2.55,4.67.13,8.86A10.08,10.08,0,0,0,32.42,44a9.63,9.63,0,0,1-2-.3,14.66,14.66,0,0,1-1.77-.77s-.76,6.36,6.69,8.58l.27.06a9.64,9.64,0,0,1-1.94.23,19.85,19.85,0,0,1-2.05-.17,8.39,8.39,0,0,0,7.93,5.95h.08c-1.11.78-5,3.36-8.14,3.58-3.75.25-4.5,0-4.5,0A25.05,25.05,0,0,0,48,64C60,60.35,66.14,46,64.57,39.5,67.71,37.07,69.21,34.81,69,34.9Z"/></svg>